<svg xmlns="http://www.w3.org/2000/svg" xmlns:xlink="http://www.w3.org/1999/xlink" width="1587" zoomAndPan="magnify" viewBox="0 0 1190.25 198.749996" height="265" preserveAspectRatio="xMidYMid meet" version="1.0"><defs><g/><clipPath id="950875f77a"><path d="M 0.375 12 L 1189.128906 12 L 1189.128906 184 L 0.375 184 Z M 0.375 12 " clip-rule="nonzero"/></clipPath><clipPath id="8c66fa7591"><path d="M 311 28 L 1189.128906 28 L 1189.128906 171.609375 L 311 171.609375 Z M 311 28 " clip-rule="nonzero"/></clipPath><clipPath id="7c57b2ebec"><rect x="0" width="879" y="0" height="144"/></clipPath><clipPath id="11951731e4"><path d="M 0.375 0.613281 L 457.183594 0.613281 L 457.183594 166.113281 L 0.375 166.113281 Z M 0.375 0.613281 " clip-rule="nonzero"/></clipPath><clipPath id="1f5548e901"><rect x="0" width="1190" y="0" height="172"/></clipPath></defs><g clip-path="url(#950875f77a)"><g transform="matrix(1, 0, 0, 1, 0, 12)"><g clip-path="url(#1f5548e901)"><g clip-path="url(#8c66fa7591)"><g transform="matrix(1, 0, 0, 1, 311, 28)"><g clip-path="url(#7c57b2ebec)"><g fill="#4f200d" fill-opacity="1"><g transform="translate(0.663823, 103.425639)"><g><path d="M 64.21875 0 L 20.296875 0 C 19.054688 0 17.882812 0.0195312 16.78125 0.0625 C 15.675781 0.113281 14.234375 0.1875 12.453125 0.28125 C 10.679688 0.382812 8.210938 0.4375 5.046875 0.4375 C 4.554688 0.4375 4.335938 0.269531 4.390625 -0.0625 C 4.441406 -0.40625 4.660156 -0.578125 5.046875 -0.578125 C 8.878906 -0.671875 11.800781 -1.125 13.8125 -1.9375 C 15.832031 -2.757812 17.203125 -4.703125 17.921875 -7.765625 C 18.640625 -10.835938 19 -15.6875 19 -22.3125 L 19 -78.46875 C 19 -85.09375 18.640625 -89.941406 17.921875 -93.015625 C 17.203125 -96.085938 15.832031 -98.054688 13.8125 -98.921875 C 11.800781 -99.785156 8.878906 -100.21875 5.046875 -100.21875 C 4.660156 -100.21875 4.441406 -100.382812 4.390625 -100.71875 C 4.335938 -101.050781 4.554688 -101.21875 5.046875 -101.21875 C 8.210938 -101.21875 10.679688 -101.171875 12.453125 -101.078125 C 14.234375 -100.984375 15.675781 -100.910156 16.78125 -100.859375 C 17.882812 -100.804688 19.054688 -100.78125 20.296875 -100.78125 L 58.453125 -100.78125 C 65.367188 -100.78125 71.515625 -99.988281 76.890625 -98.40625 C 82.265625 -96.820312 86.488281 -94.375 89.5625 -91.0625 C 92.632812 -87.757812 94.171875 -83.5625 94.171875 -78.46875 C 94.171875 -74.25 92.921875 -70.625 90.421875 -67.59375 C 87.921875 -64.570312 84.507812 -62.078125 80.1875 -60.109375 C 75.875 -58.140625 71.003906 -56.628906 65.578125 -55.578125 C 60.160156 -54.523438 54.570312 -53.851562 48.8125 -53.5625 L 48.8125 -52.984375 C 54.570312 -52.984375 60.472656 -52.644531 66.515625 -51.96875 C 72.566406 -51.300781 78.160156 -50.054688 83.296875 -48.234375 C 88.429688 -46.410156 92.601562 -43.816406 95.8125 -40.453125 C 99.03125 -37.097656 100.640625 -32.734375 100.640625 -27.359375 C 100.640625 -21.785156 99.101562 -16.9375 96.03125 -12.8125 C 92.96875 -8.6875 88.722656 -5.519531 83.296875 -3.3125 C 77.867188 -1.101562 71.507812 0 64.21875 0 Z M 31.53125 -53.84375 L 37.71875 -53.84375 C 51.0625 -53.84375 61.40625 -55.859375 68.75 -59.890625 C 76.09375 -63.921875 79.765625 -70.019531 79.765625 -78.1875 C 79.765625 -82.882812 78.421875 -86.789062 75.734375 -89.90625 C 73.046875 -93.03125 69.660156 -95.359375 65.578125 -96.890625 C 61.503906 -98.429688 57.304688 -99.203125 52.984375 -99.203125 L 32.828125 -99.203125 C 32.160156 -96.222656 31.773438 -93.050781 31.671875 -89.6875 C 31.578125 -86.332031 31.53125 -82.398438 31.53125 -77.890625 Z M 31.53125 -52.265625 L 31.53125 -26.0625 C 31.53125 -20.78125 31.550781 -16.722656 31.59375 -13.890625 C 31.644531 -11.054688 31.765625 -8.800781 31.953125 -7.125 C 32.148438 -5.445312 32.441406 -3.648438 32.828125 -1.734375 L 57.015625 -1.734375 C 62.585938 -1.734375 67.554688 -2.832031 71.921875 -5.03125 C 76.285156 -7.238281 79.765625 -10.265625 82.359375 -14.109375 C 84.953125 -17.953125 86.25 -22.320312 86.25 -27.21875 C 86.25 -31.914062 85.191406 -35.800781 83.078125 -38.875 C 80.960938 -41.945312 78.15625 -44.394531 74.65625 -46.21875 C 71.15625 -48.039062 67.289062 -49.382812 63.0625 -50.25 C 58.84375 -51.113281 54.570312 -51.664062 50.25 -51.90625 C 45.925781 -52.144531 41.894531 -52.265625 38.15625 -52.265625 Z M 31.53125 -52.265625 "/></g></g></g><g fill="#4f200d" fill-opacity="1"><g transform="translate(106.16649, 103.425639)"><g><path d="M 57.453125 1.578125 C 47.179688 1.578125 38.109375 -0.53125 30.234375 -4.75 C 22.367188 -8.976562 16.25 -14.90625 11.875 -22.53125 C 7.507812 -30.164062 5.328125 -39.019531 5.328125 -49.09375 C 5.328125 -56.675781 6.691406 -63.679688 9.421875 -70.109375 C 12.160156 -76.546875 15.953125 -82.1875 20.796875 -87.03125 C 25.648438 -91.882812 31.289062 -95.65625 37.71875 -98.34375 C 44.15625 -101.03125 51.117188 -102.375 58.609375 -102.375 C 69.253906 -102.375 78.582031 -100.238281 86.59375 -95.96875 C 94.613281 -91.695312 100.832031 -85.742188 105.25 -78.109375 C 109.664062 -70.484375 111.875 -61.535156 111.875 -51.265625 C 111.875 -43.679688 110.503906 -36.671875 107.765625 -30.234375 C 105.035156 -23.804688 101.195312 -18.210938 96.25 -13.453125 C 91.3125 -8.703125 85.550781 -5.007812 78.96875 -2.375 C 72.394531 0.257812 65.222656 1.578125 57.453125 1.578125 Z M 60.625 -0.28125 C 67.238281 -0.28125 73.378906 -2.03125 79.046875 -5.53125 C 84.710938 -9.039062 89.269531 -14.300781 92.71875 -21.3125 C 96.175781 -28.320312 97.8125 -37.054688 97.625 -47.515625 C 97.53125 -54.523438 96.5 -61.21875 94.53125 -67.59375 C 92.5625 -73.976562 89.75 -79.640625 86.09375 -84.578125 C 82.445312 -89.523438 78.128906 -93.414062 73.140625 -96.25 C 68.148438 -99.082031 62.582031 -100.5 56.4375 -100.5 C 49.8125 -100.5 43.664062 -98.695312 38 -95.09375 C 32.34375 -91.5 27.8125 -86.171875 24.40625 -79.109375 C 21 -72.054688 19.390625 -63.300781 19.578125 -52.84375 C 19.578125 -45.925781 20.5625 -39.300781 22.53125 -32.96875 C 24.5 -26.632812 27.304688 -20.992188 30.953125 -16.046875 C 34.597656 -11.109375 38.914062 -7.222656 43.90625 -4.390625 C 48.90625 -1.554688 54.476562 -0.1875 60.625 -0.28125 Z M 60.625 -0.28125 "/></g></g></g><g fill="#4f200d" fill-opacity="1"><g transform="translate(223.183717, 103.425639)"><g><path d="M 57.453125 1.578125 C 47.179688 1.578125 38.109375 -0.53125 30.234375 -4.75 C 22.367188 -8.976562 16.25 -14.90625 11.875 -22.53125 C 7.507812 -30.164062 5.328125 -39.019531 5.328125 -49.09375 C 5.328125 -56.675781 6.691406 -63.679688 9.421875 -70.109375 C 12.160156 -76.546875 15.953125 -82.1875 20.796875 -87.03125 C 25.648438 -91.882812 31.289062 -95.65625 37.71875 -98.34375 C 44.15625 -101.03125 51.117188 -102.375 58.609375 -102.375 C 69.253906 -102.375 78.582031 -100.238281 86.59375 -95.96875 C 94.613281 -91.695312 100.832031 -85.742188 105.25 -78.109375 C 109.664062 -70.484375 111.875 -61.535156 111.875 -51.265625 C 111.875 -43.679688 110.503906 -36.671875 107.765625 -30.234375 C 105.035156 -23.804688 101.195312 -18.210938 96.25 -13.453125 C 91.3125 -8.703125 85.550781 -5.007812 78.96875 -2.375 C 72.394531 0.257812 65.222656 1.578125 57.453125 1.578125 Z M 60.625 -0.28125 C 67.238281 -0.28125 73.378906 -2.03125 79.046875 -5.53125 C 84.710938 -9.039062 89.269531 -14.300781 92.71875 -21.3125 C 96.175781 -28.320312 97.8125 -37.054688 97.625 -47.515625 C 97.53125 -54.523438 96.5 -61.21875 94.53125 -67.59375 C 92.5625 -73.976562 89.75 -79.640625 86.09375 -84.578125 C 82.445312 -89.523438 78.128906 -93.414062 73.140625 -96.25 C 68.148438 -99.082031 62.582031 -100.5 56.4375 -100.5 C 49.8125 -100.5 43.664062 -98.695312 38 -95.09375 C 32.34375 -91.5 27.8125 -86.171875 24.40625 -79.109375 C 21 -72.054688 19.390625 -63.300781 19.578125 -52.84375 C 19.578125 -45.925781 20.5625 -39.300781 22.53125 -32.96875 C 24.5 -26.632812 27.304688 -20.992188 30.953125 -16.046875 C 34.597656 -11.109375 38.914062 -7.222656 43.90625 -4.390625 C 48.90625 -1.554688 54.476562 -0.1875 60.625 -0.28125 Z M 60.625 -0.28125 "/></g></g></g><g fill="#4f200d" fill-opacity="1"><g transform="translate(340.200945, 103.425639)"><g><path d="M 110.296875 -0.578125 C 110.773438 -0.578125 111.015625 -0.40625 111.015625 -0.0625 C 111.015625 0.269531 110.773438 0.4375 110.296875 0.4375 C 107.128906 0.4375 104.628906 0.382812 102.796875 0.28125 C 100.972656 0.1875 99.484375 0.113281 98.328125 0.0625 C 97.179688 0.0195312 95.984375 0 94.734375 0 L 87.6875 0 C 85.476562 -1.820312 83.722656 -4.003906 82.421875 -6.546875 C 81.128906 -9.085938 79.8125 -12.519531 78.46875 -16.84375 L 76.890625 -21.59375 C 74.972656 -27.644531 73.03125 -32.925781 71.0625 -37.4375 C 69.09375 -41.945312 66.8125 -45.445312 64.21875 -47.9375 C 61.625 -50.4375 58.359375 -51.6875 54.421875 -51.6875 C 49.722656 -51.6875 45.359375 -50.726562 41.328125 -48.8125 C 37.296875 -46.894531 34.03125 -44.78125 31.53125 -42.46875 L 31.53125 -22.3125 C 31.53125 -15.6875 31.890625 -10.835938 32.609375 -7.765625 C 33.328125 -4.703125 34.691406 -2.757812 36.703125 -1.9375 C 38.722656 -1.125 41.65625 -0.671875 45.5 -0.578125 C 45.976562 -0.578125 46.238281 -0.40625 46.28125 -0.0625 C 46.332031 0.269531 46.070312 0.4375 45.5 0.4375 C 42.332031 0.4375 39.882812 0.382812 38.15625 0.28125 C 36.425781 0.1875 35.007812 0.113281 33.90625 0.0625 C 32.800781 0.0195312 31.625 0 30.375 0 L 20.296875 0 C 19.054688 0 17.882812 0.0195312 16.78125 0.0625 C 15.675781 0.113281 14.234375 0.1875 12.453125 0.28125 C 10.679688 0.382812 8.210938 0.4375 5.046875 0.4375 C 4.554688 0.4375 4.335938 0.269531 4.390625 -0.0625 C 4.441406 -0.40625 4.660156 -0.578125 5.046875 -0.578125 C 8.878906 -0.671875 11.800781 -1.125 13.8125 -1.9375 C 15.832031 -2.757812 17.203125 -4.703125 17.921875 -7.765625 C 18.640625 -10.835938 19 -15.6875 19 -22.3125 L 19 -78.46875 C 19 -85.09375 18.640625 -89.941406 17.921875 -93.015625 C 17.203125 -96.085938 15.832031 -98.054688 13.8125 -98.921875 C 11.800781 -99.785156 8.878906 -100.21875 5.046875 -100.21875 C 4.660156 -100.21875 4.441406 -100.382812 4.390625 -100.71875 C 4.335938 -101.050781 4.554688 -101.21875 5.046875 -101.21875 C 8.210938 -101.21875 10.679688 -101.171875 12.453125 -101.078125 C 14.234375 -100.984375 15.675781 -100.910156 16.78125 -100.859375 C 17.882812 -100.804688 19.054688 -100.78125 20.296875 -100.78125 L 30.375 -100.78125 C 31.625 -100.78125 32.800781 -100.804688 33.90625 -100.859375 C 35.007812 -100.910156 36.425781 -100.984375 38.15625 -101.078125 C 39.882812 -101.171875 42.332031 -101.21875 45.5 -101.21875 C 46.070312 -101.21875 46.332031 -101.050781 46.28125 -100.71875 C 46.238281 -100.382812 45.976562 -100.21875 45.5 -100.21875 C 41.65625 -100.21875 38.722656 -99.785156 36.703125 -98.921875 C 34.691406 -98.054688 33.328125 -96.085938 32.609375 -93.015625 C 31.890625 -89.941406 31.53125 -85.09375 31.53125 -78.46875 L 31.53125 -44.640625 L 67.671875 -80.78125 C 71.128906 -84.226562 73.289062 -87.414062 74.15625 -90.34375 C 75.019531 -93.269531 74.5625 -95.617188 72.78125 -97.390625 C 71.007812 -99.171875 67.816406 -100.0625 63.203125 -100.0625 C 62.722656 -100.0625 62.484375 -100.253906 62.484375 -100.640625 C 62.484375 -101.023438 62.722656 -101.21875 63.203125 -101.21875 C 68.578125 -101.21875 73.015625 -101.144531 76.515625 -101 C 80.023438 -100.851562 82.835938 -100.78125 84.953125 -100.78125 L 85.53125 -100.78125 C 86.78125 -100.78125 88.457031 -100.851562 90.5625 -101 C 92.675781 -101.144531 95.363281 -101.21875 98.625 -101.21875 C 98.914062 -101.21875 99.0625 -101.050781 99.0625 -100.71875 C 99.0625 -100.382812 98.914062 -100.21875 98.625 -100.21875 C 94.5 -100.113281 90.15625 -98.257812 85.59375 -94.65625 C 81.039062 -91.0625 76.363281 -86.914062 71.5625 -82.21875 L 37.71875 -48.671875 C 40.789062 -50.585938 44.125 -52.171875 47.71875 -53.421875 C 51.320312 -54.671875 55.046875 -55.296875 58.890625 -55.296875 C 65.992188 -55.296875 71.875 -53.035156 76.53125 -48.515625 C 81.1875 -44.003906 85.144531 -36.613281 88.40625 -26.34375 L 89.703125 -22.3125 C 91.429688 -16.75 93.132812 -12.382812 94.8125 -9.21875 C 96.488281 -6.050781 98.523438 -3.84375 100.921875 -2.59375 C 103.328125 -1.34375 106.453125 -0.671875 110.296875 -0.578125 Z M 110.296875 -0.578125 "/></g></g></g><g fill="#4f200d" fill-opacity="1"><g transform="translate(449.301913, 103.425639)"><g><path d="M 137.5 -0.71875 C 137.976562 -0.71875 138.21875 -0.550781 138.21875 -0.21875 C 138.21875 0.113281 137.976562 0.28125 137.5 0.28125 C 134.332031 0.28125 131.859375 0.234375 130.078125 0.140625 C 128.304688 0.046875 126.867188 -0.0195312 125.765625 -0.0625 C 124.660156 -0.113281 123.488281 -0.140625 122.25 -0.140625 L 112.3125 0 C 111.0625 0 109.882812 0.046875 108.78125 0.140625 C 107.675781 0.234375 106.234375 0.304688 104.453125 0.359375 C 102.679688 0.410156 100.210938 0.484375 97.046875 0.578125 C 96.566406 0.578125 96.347656 0.40625 96.390625 0.0625 C 96.441406 -0.269531 96.660156 -0.4375 97.046875 -0.4375 C 100.890625 -0.53125 103.816406 -1.007812 105.828125 -1.875 C 107.847656 -2.738281 109.21875 -4.703125 109.9375 -7.765625 C 110.65625 -10.835938 111.015625 -15.6875 111.015625 -22.3125 L 111.015625 -92.296875 L 73.71875 -40.3125 L 78.609375 -33.40625 C 77.554688 -32.539062 76.210938 -31.363281 74.578125 -29.875 C 72.953125 -28.382812 71.753906 -26.828125 70.984375 -25.203125 C 70.796875 -24.816406 70.601562 -24.816406 70.40625 -25.203125 L 22.3125 -88.6875 L 22.3125 -25.34375 C 22.3125 -18.425781 23.894531 -12.59375 27.0625 -7.84375 C 30.238281 -3.09375 34.992188 -0.71875 41.328125 -0.71875 C 41.804688 -0.71875 42.046875 -0.523438 42.046875 -0.140625 C 42.046875 0.242188 41.804688 0.4375 41.328125 0.4375 C 36.523438 0.4375 32.488281 0.363281 29.21875 0.21875 C 25.957031 0.0703125 23.367188 0 21.453125 0 C 19.816406 0 17.628906 0.0703125 14.890625 0.21875 C 12.160156 0.363281 8.78125 0.4375 4.75 0.4375 C 4.363281 0.4375 4.171875 0.269531 4.171875 -0.0625 C 4.171875 -0.40625 4.363281 -0.578125 4.75 -0.578125 C 10.125 -0.578125 14.128906 -2.6875 16.765625 -6.90625 C 19.410156 -11.132812 20.734375 -16.269531 20.734375 -22.3125 C 20.734375 -27.789062 20.707031 -33.742188 20.65625 -40.171875 C 20.613281 -46.597656 20.59375 -53.050781 20.59375 -59.53125 C 20.59375 -66.007812 20.59375 -71.988281 20.59375 -77.46875 C 20.59375 -84.375 20.207031 -89.4375 19.4375 -92.65625 C 18.664062 -95.875 17.222656 -97.910156 15.109375 -98.765625 C 13.003906 -99.628906 9.9375 -100.0625 5.90625 -100.0625 C 5.519531 -100.0625 5.300781 -100.253906 5.25 -100.640625 C 5.207031 -101.023438 5.425781 -101.21875 5.90625 -101.21875 C 9.257812 -101.21875 11.847656 -101.171875 13.671875 -101.078125 C 15.503906 -100.984375 17.019531 -100.910156 18.21875 -100.859375 C 19.414062 -100.804688 20.640625 -100.78125 21.890625 -100.78125 L 28.9375 -100.78125 L 72.71875 -41.46875 L 114.90625 -100.78125 L 122.25 -100.78125 C 123.488281 -100.78125 124.660156 -100.804688 125.765625 -100.859375 C 126.867188 -100.910156 128.304688 -100.984375 130.078125 -101.078125 C 131.859375 -101.171875 134.332031 -101.21875 137.5 -101.21875 C 137.976562 -101.21875 138.21875 -101.050781 138.21875 -100.71875 C 138.21875 -100.382812 137.976562 -100.21875 137.5 -100.21875 C 133.664062 -100.21875 130.738281 -99.785156 128.71875 -98.921875 C 126.707031 -98.054688 125.335938 -96.085938 124.609375 -93.015625 C 123.890625 -89.941406 123.53125 -85.09375 123.53125 -78.46875 L 123.53125 -22.46875 C 123.53125 -15.84375 123.890625 -10.992188 124.609375 -7.921875 C 125.335938 -4.847656 126.707031 -2.898438 128.71875 -2.078125 C 130.738281 -1.265625 133.664062 -0.8125 137.5 -0.71875 Z M 137.5 -0.71875 "/></g></g></g><g fill="#4f200d" fill-opacity="1"><g transform="translate(591.795233, 103.425639)"><g><path d="M 30.375 -100.78125 C 31.625 -100.78125 32.800781 -100.804688 33.90625 -100.859375 C 35.007812 -100.910156 36.425781 -100.984375 38.15625 -101.078125 C 39.882812 -101.171875 42.332031 -101.21875 45.5 -101.21875 C 46.070312 -101.21875 46.332031 -101.050781 46.28125 -100.71875 C 46.238281 -100.382812 45.976562 -100.21875 45.5 -100.21875 C 41.65625 -100.21875 38.722656 -99.785156 36.703125 -98.921875 C 34.691406 -98.054688 33.328125 -96.085938 32.609375 -93.015625 C 31.890625 -89.941406 31.53125 -85.09375 31.53125 -78.46875 L 31.53125 -22.3125 C 31.53125 -15.6875 31.890625 -10.835938 32.609375 -7.765625 C 33.328125 -4.703125 34.691406 -2.757812 36.703125 -1.9375 C 38.722656 -1.125 41.65625 -0.671875 45.5 -0.578125 C 45.976562 -0.578125 46.238281 -0.40625 46.28125 -0.0625 C 46.332031 0.269531 46.070312 0.4375 45.5 0.4375 C 42.332031 0.4375 39.882812 0.382812 38.15625 0.28125 C 36.425781 0.1875 35.007812 0.113281 33.90625 0.0625 C 32.800781 0.0195312 31.625 0 30.375 0 L 20.296875 0 C 19.054688 0 17.882812 0.0195312 16.78125 0.0625 C 15.675781 0.113281 14.234375 0.1875 12.453125 0.28125 C 10.679688 0.382812 8.210938 0.4375 5.046875 0.4375 C 4.554688 0.4375 4.335938 0.269531 4.390625 -0.0625 C 4.441406 -0.40625 4.660156 -0.578125 5.046875 -0.578125 C 8.878906 -0.671875 11.800781 -1.125 13.8125 -1.9375 C 15.832031 -2.757812 17.203125 -4.703125 17.921875 -7.765625 C 18.640625 -10.835938 19 -15.6875 19 -22.3125 L 19 -78.46875 C 19 -85.09375 18.640625 -89.941406 17.921875 -93.015625 C 17.203125 -96.085938 15.832031 -98.054688 13.8125 -98.921875 C 11.800781 -99.785156 8.878906 -100.21875 5.046875 -100.21875 C 4.660156 -100.21875 4.441406 -100.382812 4.390625 -100.71875 C 4.335938 -101.050781 4.554688 -101.21875 5.046875 -101.21875 C 8.210938 -101.21875 10.679688 -101.171875 12.453125 -101.078125 C 14.234375 -100.984375 15.675781 -100.910156 16.78125 -100.859375 C 17.882812 -100.804688 19.054688 -100.78125 20.296875 -100.78125 Z M 30.375 -100.78125 "/></g></g></g><g fill="#4f200d" fill-opacity="1"><g transform="translate(642.459565, 103.425639)"><g><path d="M 118.640625 -101.21875 C 119.117188 -101.21875 119.359375 -101.050781 119.359375 -100.71875 C 119.359375 -100.382812 119.117188 -100.21875 118.640625 -100.21875 C 113.359375 -100.21875 109.375 -98.101562 106.6875 -93.875 C 104 -89.65625 102.65625 -84.519531 102.65625 -78.46875 L 102.65625 -0.140625 C 102.65625 0.140625 102.507812 0.304688 102.21875 0.359375 C 101.9375 0.410156 101.703125 0.289062 101.515625 0 L 22.3125 -87.96875 L 22.3125 -25.34375 C 22.3125 -20.738281 22.957031 -16.585938 24.25 -12.890625 C 25.550781 -9.191406 27.5 -6.238281 30.09375 -4.03125 C 32.6875 -1.820312 35.953125 -0.71875 39.890625 -0.71875 C 40.367188 -0.71875 40.609375 -0.523438 40.609375 -0.140625 C 40.609375 0.242188 40.367188 0.4375 39.890625 0.4375 C 35.472656 0.4375 31.75 0.363281 28.71875 0.21875 C 25.695312 0.0703125 23.273438 0 21.453125 0 C 19.921875 0 17.757812 0.0703125 14.96875 0.21875 C 12.1875 0.363281 8.78125 0.4375 4.75 0.4375 C 4.363281 0.4375 4.171875 0.269531 4.171875 -0.0625 C 4.171875 -0.40625 4.363281 -0.578125 4.75 -0.578125 C 10.125 -0.578125 14.128906 -2.6875 16.765625 -6.90625 C 19.410156 -11.132812 20.734375 -16.269531 20.734375 -22.3125 L 20.734375 -74.578125 C 20.734375 -80.429688 20.539062 -85.0625 20.15625 -88.46875 C 19.769531 -91.882812 19.050781 -94.40625 18 -96.03125 C 16.945312 -97.664062 15.457031 -98.742188 13.53125 -99.265625 C 11.613281 -99.796875 9.117188 -100.0625 6.046875 -100.0625 C 5.660156 -100.0625 5.441406 -100.273438 5.390625 -100.703125 C 5.347656 -101.140625 5.566406 -101.359375 6.046875 -101.359375 C 9.410156 -101.359375 12.003906 -101.3125 13.828125 -101.21875 C 15.648438 -101.125 17.160156 -101.023438 18.359375 -100.921875 C 19.554688 -100.828125 20.78125 -100.78125 22.03125 -100.78125 L 27.9375 -100.78125 L 101.078125 -17.421875 L 101.078125 -75.453125 C 101.078125 -80.054688 100.425781 -84.226562 99.125 -87.96875 C 97.832031 -91.71875 95.890625 -94.671875 93.296875 -96.828125 C 90.710938 -98.984375 87.453125 -100.0625 83.515625 -100.0625 C 83.128906 -100.0625 82.9375 -100.253906 82.9375 -100.640625 C 82.9375 -101.023438 83.128906 -101.21875 83.515625 -101.21875 C 88.023438 -101.21875 91.765625 -101.144531 94.734375 -101 C 97.710938 -100.851562 100.113281 -100.78125 101.9375 -100.78125 C 103.570312 -100.78125 105.753906 -100.851562 108.484375 -101 C 111.222656 -101.144531 114.609375 -101.21875 118.640625 -101.21875 Z M 118.640625 -101.21875 "/></g></g></g><g fill="#4f200d" fill-opacity="1"><g transform="translate(762.931202, 103.425639)"><g><path d="M 49.96875 0 L 20.296875 0 C 19.054688 0 17.882812 0.0195312 16.78125 0.0625 C 15.675781 0.113281 14.234375 0.1875 12.453125 0.28125 C 10.679688 0.382812 8.210938 0.4375 5.046875 0.4375 C 4.554688 0.4375 4.335938 0.269531 4.390625 -0.0625 C 4.441406 -0.40625 4.660156 -0.578125 5.046875 -0.578125 C 8.878906 -0.671875 11.800781 -1.125 13.8125 -1.9375 C 15.832031 -2.757812 17.203125 -4.703125 17.921875 -7.765625 C 18.640625 -10.835938 19 -15.6875 19 -22.3125 L 19 -78.46875 C 19 -85.09375 18.640625 -89.941406 17.921875 -93.015625 C 17.203125 -96.085938 15.832031 -98.054688 13.8125 -98.921875 C 11.800781 -99.785156 8.878906 -100.21875 5.046875 -100.21875 C 4.660156 -100.21875 4.441406 -100.382812 4.390625 -100.71875 C 4.335938 -101.050781 4.554688 -101.21875 5.046875 -101.21875 C 8.210938 -101.21875 10.679688 -101.171875 12.453125 -101.078125 C 14.234375 -100.984375 15.675781 -100.910156 16.78125 -100.859375 C 17.882812 -100.804688 19.054688 -100.78125 20.296875 -100.78125 L 48.8125 -100.78125 C 61.09375 -100.78125 71.960938 -98.859375 81.421875 -95.015625 C 90.878906 -91.179688 98.296875 -85.519531 103.671875 -78.03125 C 109.046875 -70.550781 111.734375 -61.335938 111.734375 -50.390625 C 111.734375 -39.453125 109.113281 -30.238281 103.875 -22.75 C 98.644531 -15.257812 91.398438 -9.59375 82.140625 -5.75 C 72.878906 -1.914062 62.15625 0 49.96875 0 Z M 32.828125 -1.578125 L 47.796875 -1.578125 C 58.066406 -1.578125 66.894531 -3.640625 74.28125 -7.765625 C 81.675781 -11.898438 87.363281 -17.640625 91.34375 -24.984375 C 95.332031 -32.328125 97.328125 -40.796875 97.328125 -50.390625 C 97.328125 -60.085938 95.332031 -68.582031 91.34375 -75.875 C 87.363281 -83.175781 81.609375 -88.890625 74.078125 -93.015625 C 66.546875 -97.140625 57.5 -99.203125 46.9375 -99.203125 L 32.828125 -99.203125 C 32.441406 -97.085938 32.148438 -95.070312 31.953125 -93.15625 C 31.765625 -91.238281 31.644531 -89.003906 31.59375 -86.453125 C 31.550781 -83.910156 31.53125 -80.578125 31.53125 -76.453125 L 31.53125 -24.328125 C 31.53125 -20.203125 31.550781 -16.867188 31.59375 -14.328125 C 31.644531 -11.785156 31.765625 -9.578125 31.953125 -7.703125 C 32.148438 -5.828125 32.441406 -3.785156 32.828125 -1.578125 Z M 32.828125 -1.578125 "/></g></g></g></g></g></g><g clip-path="url(#11951731e4)"><path fill="#4f200d" d="M 234.851562 159.105469 C 228.207031 152.082031 221.722656 147.230469 215.332031 144.363281 C 265.921875 102.039062 289.464844 48.421875 285.144531 28.648438 C 278.070312 74.894531 233.523438 128.109375 215.304688 144.351562 C 209.761719 141.871094 204.292969 140.894531 198.859375 141.3125 C 214.132812 120.160156 228.679688 35.761719 219.867188 15.558594 C 226.925781 19.085938 234.292969 24.851562 246.730469 22.859375 C 231.328125 18.328125 225.535156 13.671875 212.535156 5.402344 C 225.636719 50.5625 207.960938 117.601562 197.988281 141.390625 C 194.078125 141.800781 190.183594 142.925781 186.292969 144.734375 C 186.671875 113.464844 151.046875 26.574219 128.789062 12.609375 C 141.949219 12.765625 151.617188 10.070312 163.507812 6.425781 C 171.675781 20.535156 177.222656 37.339844 181.582031 53.988281 C 180 35.792969 173.023438 17.640625 166.363281 0.714844 C 148.765625 5.871094 133.070312 7.296875 115.472656 7.375 C 155.167969 42.003906 179.410156 115.148438 185.128906 145.300781 C 182.605469 146.5625 180.078125 148.109375 177.550781 149.929688 C 165.421875 123.914062 88.621094 63.6875 61.558594 62.9375 C 72.976562 56.390625 78.035156 50.109375 86.425781 40.929688 C 100.625 48.9375 122.027344 68.207031 134.238281 80.332031 C 123.632812 65.464844 100.320312 44.808594 85.984375 33.613281 C 73.441406 46.988281 60.648438 56.191406 45.527344 65.195312 C 98.609375 75.109375 158.253906 128.125 177.03125 150.308594 C 175.539062 151.40625 174.042969 152.585938 172.546875 153.871094 C 122.527344 138.628906 71.476562 134.703125 11.308594 156.25 C 17.808594 146.578125 20.1875 137.859375 20.34375 128.1875 C 48.558594 122.394531 81.378906 117.796875 119.753906 119.625 C 91.277344 113.679688 51.523438 112.726562 16.0625 122.003906 C 13.09375 139.765625 7.148438 153.558594 0.367188 166.238281 C 66.433594 143.109375 122.8125 142.910156 174.925781 162.910156 C 196.488281 146.101562 216.78125 145.945312 232.003906 163.382812 C 293.199219 159.472656 396.253906 156.945312 457.453125 161.957031 C 404.160156 155.535156 300.828125 155.378906 234.851562 159.105469 Z M 234.851562 159.105469 " fill-opacity="1" fill-rule="evenodd"/></g></g></g></g></svg>